<svg width="86" height="86" viewBox="0 0 86 86" fill="none" xmlns="http://www.w3.org/2000/svg">
<path d="M43.6921 62.2761C43.6921 62.2761 3.22502 74.6319 3.13768 75.5255C3.05033 76.4191 19.3366 83.6014 46.5542 83.2252C72.5155 82.8691 82.5466 76.2444 82.7213 75.5255C82.896 74.8066 44.5857 62.0947 43.6921 62.2761Z" fill="#88B154"/>
<path d="M41.8309 28.3195L38.9351 24.678C38.9351 24.678 34.2589 29.5827 32.9958 30.9197C31.7326 32.2567 30.7584 33.0294 30.1537 34.2858C29.287 36.0797 26.539 51.5664 26.539 51.5664L18.5908 59.7297C18.5908 59.7297 17.0925 58.7958 16.7229 59.0981C16.3534 59.4005 4.17905 73.913 4.17905 73.913L3.13092 75.5187C3.13092 75.5187 5.54967 76.0562 6.29545 75.9823C6.65826 75.9487 8.44545 75.5389 10.4678 75.3306C12.5976 75.1089 15.3187 75.2903 15.6211 75.2567C15.9637 75.2231 17.1462 74.8738 17.1462 74.8738L27.7215 68.5648L36.12 68.2423L44.3572 69.9758L59.9514 70.7216L68.4909 57.9492L49.927 33.3653L41.8309 28.3195Z" fill="#9EA2A3"/>
<path d="M19.1821 65.6892C19.1821 65.6892 18.8932 64.8628 18.6782 64.2514C18.4632 63.64 18.5908 59.7297 18.5908 59.7297C18.5908 59.7297 23.435 62.5919 23.9725 63.0622C24.51 63.5325 29.3072 66.5223 29.3072 66.5223L32.1963 66.4484L32.7808 67.7451C32.7808 67.7451 28.6219 69.7205 27.2513 70.1572C25.8807 70.5872 17.0992 75.0551 17.1127 74.8872C17.1396 74.5378 19.3971 71.3061 19.3971 71.3061L19.1821 65.6892Z" fill="#717A7C"/>
<path d="M54.2404 69.5122L21.1439 74.7394C21.1439 74.7394 19.5448 76.157 19.7061 76.5333C19.8673 76.9095 25.9747 78.045 28.0843 78.3138C30.194 78.5825 44.6192 79.3955 46.1847 79.288C47.7501 79.1805 63.7475 78.3675 65.9647 78.0988C68.1818 77.83 75.6329 77.3127 76.1234 77.0909C77.0708 76.6609 81.4178 74.3161 81.4178 74.3161C81.4178 74.3161 76.5534 66.6433 75.5792 64.8023C74.605 62.9681 72.9858 59.6692 71.8503 58.5338C70.7148 57.3983 69.9018 56.9145 69.9018 56.9145C69.9018 56.9145 68.37 53.3536 66.5828 51.0827C64.8023 48.8117 62.3634 45.1366 61.7923 44.5722C59.649 42.4356 59.5886 42.2341 59.5886 42.2341L60.9323 58.4263C60.9323 58.4263 58.4464 63.3981 57.5797 64.7486C56.7264 66.1125 54.2404 69.5122 54.2404 69.5122Z" fill="#798082"/>
<path d="M42.3483 18.5572L41.6966 31.7394L49.3627 36.4963C49.3627 36.4963 51.6672 42.402 51.7747 42.9463C51.8822 43.4838 51.6739 44.9417 51.8889 45.318C52.1039 45.6942 56.0747 48.4287 56.2292 48.4355C57.1094 48.4825 58.9302 48.1667 58.8227 48.0055C58.7152 47.8442 59.5483 44.337 59.5483 44.337C59.5483 44.337 54.2808 35.7975 53.1453 33.4191C52.0099 31.0406 47.7435 24.8795 47.253 23.8516C46.7625 22.8236 44.4446 19.4172 43.9541 18.8797C43.4636 18.3422 42.6775 18.1809 42.3483 18.5572Z" fill="#717A7C"/>
<path d="M45.7009 43.7055C45.7009 43.7055 49.3223 37.7392 49.4298 36.8255C49.5373 35.9117 46.5139 30.3419 45.7547 28.3397C44.9954 26.3375 43 22.2323 42.785 21.6948C42.57 21.1573 42.355 18.5639 42.355 18.5639C42.355 18.5639 40.8433 20.1831 40.299 21.4798C39.7615 22.7766 37.7258 25.968 37.7258 25.968C37.7258 25.968 39.0023 33.372 39.4928 36.5567C39.9765 39.7481 40.3393 43.9339 40.2654 44.0884C39.8018 45.0291 36.6843 52.6078 36.6843 52.6078C36.6843 52.6078 36.2812 56.283 36.6575 56.6592C37.0337 57.0355 39.2173 57.5327 39.3853 57.2773C39.7145 56.7869 39.7078 54.9258 39.7078 54.9258C39.7078 54.9258 45.7681 46.7423 45.9629 46.3392C46.0368 46.1847 45.7009 43.7055 45.7009 43.7055ZM33.3518 44.29C33.3317 43.477 32.1425 39.6205 31.9275 38.7537C31.7125 37.887 31.2556 33.6072 30.6576 33.6072C30.0664 33.6072 27.3251 41.1456 27.0497 41.8511C26.7809 42.5566 22.9445 50.8206 22.454 51.7948C21.9703 52.7691 19.7531 56.9817 19.3231 57.6872C18.8931 58.3927 18.322 59.5886 18.322 59.5886L29.3004 66.5291L33.2645 66.0789C33.2645 66.0789 30.9465 59.8506 30.4023 58.4464C29.8581 57.0422 29.2131 54.7713 29.2131 54.7713C29.2131 54.7713 30.4695 51.7613 31.2892 49.5978C32.1156 47.4209 33.3787 45.0963 33.3518 44.29ZM17.0118 59.1048C17.0387 59.2056 17.1798 61.7386 17.1059 63.2503C17.032 64.7688 16.7364 66.2872 16.7364 66.2872L11.8451 71.3934L11.6906 72.5423C11.6906 72.5423 4.25966 75.1694 3.77591 75.3172C3.29216 75.465 3.13763 75.5188 3.13763 75.5188C3.13763 75.5188 2.12982 74.9073 5.14654 71.6152C9.04341 67.3622 14.0287 61.537 14.6603 60.8047C15.7823 59.508 16.9379 58.8025 17.0118 59.1048Z" fill="#C0C0C0"/>
<path d="M71.6958 67.0666C71.2926 66.8986 70.2647 71.4472 70.0497 73.053C69.8347 74.6587 69.2636 77.7091 69.4114 78.0114C69.8414 78.8647 74.4236 78.3003 74.867 77.568C74.9947 77.3597 74.3497 73.9398 73.8861 72.4953C73.2545 70.52 72.7372 67.5033 71.6958 67.0666ZM79.7247 61.3355C79.0931 61.3623 78.4212 66.8784 78.0047 68.0811C77.5344 69.445 75.9622 75.9017 76.6139 76.6408C77.2656 77.3798 79.7583 76.7953 80.6854 76.5266C81.579 76.2712 82.3517 75.8412 82.5667 75.3642C82.7817 74.8872 82.2711 71.0373 81.653 68.3498C81.0214 65.6287 80.719 61.2884 79.7247 61.3355Z" fill="#33632C"/>
<path d="M21.1439 74.7461C21.1439 74.7461 22.8841 75.4045 28.8436 75.7741C34.8032 76.1436 37.7325 76.11 37.7325 76.11L51.3447 74.1212L54.4353 69.23C54.4353 69.23 50.3235 69.0755 48.1399 69.0016C45.9563 68.9277 42.6977 68.9142 42.5499 68.5111C42.4021 68.1012 46.225 65.3264 47.3 64.7755C48.375 64.2178 50.9685 63.9222 51.5597 63.2973C52.151 62.6658 59.6222 58.4531 60.5427 58.4195C61.4699 58.3792 64.3589 60.1597 64.9099 59.9716C65.4675 59.7834 62.9883 53.2259 62.6591 51.9964C62.6322 51.8889 61.3221 45.4994 61.2817 45.3784C60.9727 44.4311 60.0253 41.972 59.4274 42.2677C58.8361 42.5633 57.835 44.8208 57.096 47.0783C56.3569 49.3358 55.9135 50.525 55.5439 51.0759C55.1744 51.6269 50.8811 54.3748 50.2831 54.9997C49.6919 55.6313 47.9114 56.9616 46.8364 57.405C45.7614 57.8484 44.7267 57.8484 43.9474 58.5539C43.168 59.2594 42.2072 60.4822 41.1322 61.6244C40.0572 62.7733 37.8736 65.407 37.1547 66.052C36.4358 66.697 35.7908 67.3219 35.7908 67.3219C35.7908 67.3219 30.5972 68.7933 28.8503 69.6398C27.1169 70.4931 20.6938 74.6319 21.1439 74.7461Z" fill="#C0C0C0"/>
<path d="M75.1089 34.9509C74.5378 35.522 74.5177 36.429 75.1492 36.9464C75.7069 37.41 76.6273 37.1076 76.97 36.6911C77.3127 36.2745 77.2723 35.3675 76.8155 34.9106C76.3586 34.4537 75.4516 34.6083 75.1089 34.9509Z" fill="white"/>
<path opacity="0.5" d="M75.297 43.4502C74.6856 44.122 74.8872 45.1231 75.4516 45.4927C76.0159 45.8622 76.8625 45.8286 77.2791 45.318C77.6486 44.8611 77.6889 43.9474 77.1245 43.383C76.6341 42.8925 75.6934 43.0134 75.297 43.4502Z" fill="white"/>
<path opacity="0.6" d="M57.7812 21.5403C57.6066 22.098 57.9559 22.7295 58.4867 22.8236C59.0444 22.9244 59.6155 22.7631 59.77 22.2324C59.9245 21.6949 59.7297 21.023 58.9637 20.8886C58.1978 20.7542 57.8686 21.238 57.7812 21.5403Z" fill="white"/>
<path d="M63.519 30.9802C63.519 30.9802 64.0162 29.1527 64.379 29.0922C64.7419 29.0317 65.4675 31.0541 65.4675 31.0541C65.4675 31.0541 67.2748 31.1145 67.3353 31.3967C67.3958 31.6856 66.0587 32.7674 66.0587 32.7674C66.0587 32.7674 66.5559 34.4605 66.3476 34.6755C66.1394 34.8838 64.4798 33.8155 64.4798 33.8155C64.4798 33.8155 62.995 35.0719 62.6523 34.8435C62.3097 34.615 62.9412 32.727 62.9412 32.727C62.9412 32.727 61.5303 31.7192 61.5101 31.3766C61.4833 31.0339 63.519 30.9802 63.519 30.9802ZM22.5347 25.9478C22.5347 25.9478 23.1864 24.0733 23.5828 24.0531C23.9725 24.033 24.5436 25.9277 24.5436 25.9277C24.5436 25.9277 26.4786 25.9478 26.613 26.23C26.7809 26.5928 25.37 27.8224 25.37 27.8224C25.37 27.8224 25.8269 29.6499 25.6119 29.8716C25.37 30.1135 23.697 29.1527 23.697 29.1527C23.697 29.1527 21.977 30.3486 21.6075 30.0261C21.285 29.7439 21.9569 27.8022 21.9569 27.8022C21.9569 27.8022 20.3444 26.6264 20.4317 26.2972C20.5459 25.8403 22.5347 25.9478 22.5347 25.9478Z" fill="white"/>
<path opacity="0.5" d="M7.96847 30.9802C7.56534 30.96 7.0144 31.3631 7.0144 32.0551C7.0144 32.5658 7.50487 32.9891 7.92815 32.9891C8.53956 32.9891 8.96284 32.5255 8.94269 31.9947C8.91581 31.3027 8.39175 31.0003 7.96847 30.9802Z" fill="white"/>
<path d="M12.4095 41.0045C12.4498 41.7705 12.8328 42.4222 13.8272 42.3953C14.8216 42.3684 15.6413 40.8433 14.6939 39.9497C13.7466 39.0561 12.3558 39.9766 12.4095 41.0045ZM5.81172 50.3772C6.28203 50.9012 7.41078 50.693 7.43766 49.7725C7.46453 48.9327 7.04125 48.5362 6.25516 48.6437C5.47578 48.7512 5.24062 49.7389 5.81172 50.3772ZM19.1216 60.7106L17.892 59.1519L15.4934 60.2537L9.91687 69.2703L11.825 71.4203C11.825 71.4203 16.4945 68.8537 16.9917 68.753C17.7375 68.5984 20.2369 68.6992 20.2369 68.6992L19.1216 60.7106Z" fill="white"/>
<path d="M19.303 68.6858L23.0789 68.753C23.0789 68.753 27.1101 70.0094 28.857 69.6398C30.6039 69.2703 32.5792 67.6578 32.5792 67.6578C32.5792 67.6578 34.1044 67.0397 33.3451 66.1595C33.1705 65.958 32.0283 65.6422 28.9175 64.8628C25.8067 64.0834 25.4036 63.4787 25.4036 63.4787C25.4036 63.4787 21.7822 60.9659 20.4855 59.9917C19.1887 59.0175 17.9055 59.0041 17.9055 59.0041C17.9055 59.0041 18.7386 62.0812 18.9267 63.9289C19.1081 65.7766 19.303 68.6858 19.303 68.6858Z" fill="#8CC2EA"/>
<path d="M3.87 73.194C3.39969 73.7651 6.81953 72.7372 8.12969 72.4214C9.80266 72.0183 11.8384 71.4069 11.8384 71.4069L12.3759 67.3219C12.3759 67.3219 15.8764 61.0331 16.3333 60.509C16.7902 59.985 18.5639 59.1048 18.5639 59.1048C18.5639 59.1048 17.5023 58.574 16.77 58.5337C15.527 58.4665 13.1553 61.228 11.9191 62.8472C10.6895 64.4664 8.54625 67.389 8.54625 67.389C8.54625 67.389 7.54516 67.6578 6.52391 69.0956C4.98531 71.2725 3.87 73.194 3.87 73.194Z" fill="#C6E4F7"/>
<path d="M26.7406 60.8652C26.2837 60.8181 25.7059 62.3433 25.3969 63.4788C25.1752 64.2783 23.7441 68.3297 23.5761 69.1158C23.4014 69.9086 22.5145 72.2467 22.7564 72.3542C22.9983 72.455 23.7844 72.6364 24.2009 72.4684C24.3084 72.4281 25.7664 71.4203 26.8212 70.7888C27.8761 70.1572 28.9175 69.5861 28.9175 69.5458C28.9175 69.1359 28.1112 65.36 28.0239 64.8561C27.7753 63.4116 27.4528 60.9391 26.7406 60.8652Z" fill="#33632C"/>
<path d="M30.8458 62.3836C30.4494 62.518 29.9589 64.0498 29.4953 65.6355C29.1997 66.6366 28.3397 69.6398 28.548 69.7877C28.7563 69.9355 30.792 69.9623 31.652 69.5323C32.4784 69.1158 33.0697 68.5917 33.1772 68.2961C33.2847 68.0005 32.3441 65.3936 31.9813 64.4395C31.6991 63.7206 31.2623 62.2358 30.8458 62.3836Z" fill="#33632C"/>
<path d="M31.3027 47.3336L22.9983 50.6459L22.3331 52.077C22.3331 52.077 23.6231 53.5216 24.5234 54.4958C25.3028 55.3356 27.3856 56.4509 27.7552 57.2034C28.4808 58.6816 31.3228 60.2 32.7405 60.9122C34.1581 61.6244 34.2186 60.7912 34.2186 60.7912L31.3027 47.3336ZM34.8434 66.8314L33.1906 68.0341C33.1906 68.0341 34.9711 69.2233 36.288 69.6197C37.6048 70.0161 39.7145 70.8022 41.9519 71.1986C44.1892 71.595 46.2989 71.333 47.7434 71.4606C49.1947 71.595 52.1509 73.0597 52.1509 73.0597C52.1509 73.0597 52.7758 71.7764 53.4006 70.8895C54.0255 70.0094 54.2338 69.5189 54.2338 69.5189L48.5497 68.2826L34.8434 66.8314Z" fill="#9EA2A3"/>
<path d="M51.4118 71.2389C50.9281 71.2792 50.2495 74.9073 50.0076 75.7136C49.8733 76.1705 48.7512 79.2947 49.0536 79.8187C49.6583 80.8937 54.6301 80.6048 54.8518 80.0405C55.0668 79.4761 53.4342 75.7001 53.1318 75.0014C52.8228 74.3161 52.124 71.1784 51.4118 71.2389Z" fill="#33632C"/>
<path d="M30.8592 33.2108L23.5291 51.1767C23.5291 51.1767 23.9859 51.8889 24.6309 52.6683C25.2826 53.4477 27.6812 55.3894 28.4606 55.9739C29.24 56.5584 29.3072 57.0758 30.2747 57.7275C31.2489 58.3792 34.7494 60.0656 35.9856 60.7106L39.2912 62.4642C39.2912 62.4642 37.2151 64.6075 36.6306 65.4474C36.0461 66.2939 35.5489 67.1136 35.5489 67.1136L46.2922 68.753C46.2922 68.753 65.0241 60.368 64.9031 59.9581C64.7822 59.5483 64.1305 50.4645 63.7408 50.0077C63.3511 49.5508 59.3937 43.1949 59.3937 43.1949L55.4364 42.6103L49.2081 30.8055L42.6573 20.1025L38.1826 27.043L35.7841 31.4505L30.8592 33.2108Z" fill="white"/>
<path d="M39.3584 58.5673C39.2845 59.0175 40.4603 60.9055 40.9777 60.8383C41.495 60.7711 44.5453 58.1172 45.3247 57.5931C46.1041 57.0758 50.6459 54.1531 51.6806 53.5081C52.7153 52.8564 55.4431 50.478 55.638 50.1353C55.8933 49.6717 56.7062 45.4994 56.8675 44.9484C56.9414 44.7066 58.48 43.4972 58.648 43.7055C58.9839 44.1153 60.4352 48.1264 60.7577 49.2283C61.0802 50.3302 63.0286 58.1172 63.1562 58.6345C63.3511 59.4005 64.7755 60.8383 65.9445 60.1261C67.1136 59.4139 70.3184 58.1306 70.6947 57.5192C70.8962 57.1967 68.1281 53.1319 66.6433 51.0087C65.1584 48.8856 63.7811 46.655 62.4105 44.7536C61.2884 43.1948 60.5897 42.2273 59.8439 41.8309C59.0914 41.4345 58.4531 42.355 58.4531 42.355C58.4531 42.355 52.9706 32.8748 51.9964 31.1884C51.0222 29.502 45.8689 21.4059 44.5856 19.5448C43.7458 18.322 43.2217 17.9659 42.4356 18.4161C41.6495 18.8595 42.0728 22.1719 42.0728 22.1719C42.0728 22.1719 49.4164 36.2275 49.0805 37.1547C48.7378 38.0819 46.0302 43.0605 44.5386 46.0436C43.0537 49.0334 39.5533 57.405 39.3584 58.5673Z" fill="#8CC2EA"/>
<path d="M31.5311 34.662C32.0686 33.8558 36.6978 44.2967 37.8669 44.4244C39.0359 44.552 39.8153 36.4492 39.6809 34.6284C39.5533 32.8144 39.6809 26.7809 40.1983 25.4842C40.7156 24.1875 42.0795 22.1786 42.0795 22.1786C42.0795 22.1786 42.8387 20.5661 42.9127 20.1361C43.1344 18.8931 42.8387 18.2414 42.8387 18.2414C42.8387 18.2414 42.0795 18.4161 41.3606 19.3903C40.6484 20.3645 37.7123 25.9612 37.7123 25.9612C37.7123 25.9612 34.0305 29.6431 32.9958 30.3553C31.9611 31.0675 30.4628 31.9745 30.1403 32.559C29.8178 33.1436 27.2848 40.1848 26.0553 43C24.5234 46.5206 23.0453 49.5172 22.9916 50.6459C22.9781 50.8676 24.2009 52.1375 24.2009 52.1375C24.2009 52.1375 25.2289 50.1622 26.4584 46.9237C27.688 43.6853 31.0003 35.4683 31.5311 34.662ZM36.3148 65.9244C36.3148 65.9244 35.3406 67.1942 35.4548 67.389C35.7773 67.94 40.5275 69.3308 41.3673 69.4651C42.2072 69.5995 47.0111 70.0497 48.6303 69.922C50.2495 69.7944 54.2337 69.5122 54.2337 69.5122C54.2337 69.5122 56.8675 66.3544 57.5125 65.8303C58.1642 65.313 61.5975 64.0162 61.5975 64.0162L65.8438 60.1866C65.8438 60.1866 64.6075 60.0992 63.9961 59.7364C63.3847 59.3736 63.1562 58.6278 63.1562 58.6278C63.1562 58.6278 60.1731 60.3142 58.9369 60.9659C57.7073 61.6176 52.9706 63.1697 51.6067 63.9491C50.2428 64.7284 46.4198 66.6701 46.4198 66.6701C46.4198 66.6701 39.6742 67.1875 39.0225 66.9926C38.3842 66.8112 36.3148 65.9244 36.3148 65.9244Z" fill="#C6E4F7"/>
<path opacity="0.5" d="M23.8717 13.4912C23.2603 14.1631 23.4619 15.1642 24.0263 15.5337C24.5907 15.9033 25.4372 15.8697 25.8538 15.359C26.2233 14.9022 26.2636 13.9884 25.6992 13.424C25.2088 12.9403 24.2614 13.0612 23.8717 13.4912Z" fill="white"/>
</svg>
